<svg width="20" height="20" viewBox="0 0 20 20" fill="none" xmlns="http://www.w3.org/2000/svg">
<path d="M16.9036 17.0202C16.7184 17.1914 16.5049 17.3165 16.256 17.402C16.1438 17.4392 16.0313 17.4661 15.9199 17.4822H15.6868C15.6106 17.4822 15.5705 17.4816 15.5352 17.4772L15.5353 17.4772L15.528 17.4764C13.2647 17.2272 11.0629 16.4537 9.17374 15.2276L9.17375 15.2276L9.16995 15.2252C7.41669 14.1097 5.88608 12.5899 4.76067 10.8315L4.76068 10.8315L4.75913 10.8291C3.53119 8.93429 2.74905 6.73877 2.50755 4.49332C2.48578 4.20947 2.51062 3.9653 2.58775 3.74711L2.58777 3.74711L2.58923 3.74285C2.67475 3.4938 2.80013 3.2801 2.97206 3.0947C3.14853 2.90441 3.34967 2.7591 3.58633 2.65434C3.82473 2.55381 4.06871 2.5 4.31286 2.5H6.46492C6.8852 2.5 7.33787 2.65653 7.67003 2.93981C8.00031 3.22149 8.2178 3.62378 8.2817 4.05711C8.36673 4.71482 8.52701 5.36416 8.76309 5.98646L8.76374 5.98817C8.88703 6.30957 8.90992 6.65604 8.83853 7.00531C8.76987 7.34121 8.60555 7.64447 8.35263 7.897L7.93466 8.31432L7.64567 8.60286L7.87069 8.94365C8.69959 10.199 9.77998 11.2778 11.0469 12.1056L11.3828 12.3251L11.6698 12.0446L12.0878 11.6362L12.0878 11.6362L12.0916 11.6324C12.3426 11.3818 12.6551 11.2159 12.9865 11.1467C13.3363 11.0757 13.6834 11.0986 14.0053 11.2217L14.0053 11.2218L14.0109 11.2239C14.6243 11.45 15.2725 11.6091 15.9274 11.7025L15.9285 11.7027C16.377 11.7657 16.7804 11.989 17.0643 12.3278L17.0643 12.3278L17.0682 12.3323C17.3613 12.6738 17.513 13.1029 17.4991 13.5448L17.4989 13.5527V13.5605V15.6737C17.4989 15.9261 17.4502 16.1678 17.3459 16.4039C17.241 16.6414 17.0951 16.8432 16.9036 17.0202Z" stroke="white"/>
</svg>
